{
  "accessors": [
    {
      "bufferView": 2,
      "componentType": 5126,
      "count": 1931,
      "max": [
        207.73846435546875,
        226.25732421875,
        326.7131652832031
      ],
      "min": [
        -226.25732421875,
        -226.25732421875,
        -209.4500732421875
      ],
      "type": "VEC3"
    },
    {
      "bufferView": 2,
      "byteOffset": 23172,
      "componentType": 5126,
      "count": 1931,
      "max": [
        0.9991220235824585,
        1.0,
        0.9999998211860657
      ],
      "min": [
        -0.999201238155365,
        -1.0,
        -1.0
      ],
      "type": "VEC3"
    },
    {
      "bufferView": 1,
      "componentType": 5126,
      "count": 1931,
      "max": [
        0.984348475933075,
        1.0
      ],
      "min": [
        -0.0006281975656747818,
        0.09999999403953552
      ],
      "type": "VEC2"
    },
    {
      "bufferView": 0,
      "componentType": 5125,
      "count": 7008,
      "type": "SCALAR"
    }
  ],
  "asset": {
    "extras": {
      "author": "Anthony Yanez (https://sketchfab.com/paulyanez)",
      "license": "CC-BY-4.0 (http://creativecommons.org/licenses/by/4.0/)",
      "source": "https://sketchfab.com/3d-models/apple-logo-32235ab79d5442af9604ffef83206196",
      "title": "Apple Logo"
    },
    "generator": "Sketchfab-12.66.0",
    "version": "2.0"
  },
  "bufferViews": [
    {
      "buffer": 0,
      "byteLength": 28032,
      "name": "floatBufferViews",
      "target": 34963
    },
    {
      "buffer": 0,
      "byteLength": 15448,
      "byteOffset": 28032,
      "byteStride": 8,
      "name": "floatBufferViews",
      "target": 34962
    },
    {
      "buffer": 0,
      "byteLength": 46344,
      "byteOffset": 43480,
      "byteStride": 12,
      "name": "floatBufferViews",
      "target": 34962
    }
  ],
  "buffers": [
    {
      "byteLength": 89824,
      "uri": "scene.bin"
    }
  ],
  "images": [
    {
      "uri": "textures/01_-_Default_baseColor.jpeg"
    }
  ],
  "materials": [
    {
      "doubleSided": true,
      "name": "01_-_Default",
      "pbrMetallicRoughness": {
        "baseColorTexture": {
          "index": 0
        },
        "metallicFactor": 0.7168181911,
        "roughnessFactor": 0.5316666574
      }
    }
  ],
  "meshes": [
    {
      "name": "Apple Logo_01 - Default_0",
      "primitives": [
        {
          "attributes": {
            "NORMAL": 1,
            "POSITION": 0,
            "TEXCOORD_0": 2
          },
          "indices": 3,
          "material": 0,
          "mode": 4
        }
      ]
    }
  ],
  "nodes": [
    {
      "children": [
        1
      ],
      "matrix": [
        1.0,
        0.0,
        0.0,
        0.0,
        0.0,
        2.220446049250313e-16,
        -1.0,
        0.0,
        0.0,
        1.0,
        2.220446049250313e-16,
        0.0,
        0.0,
        0.0,
        0.0,
        1.0
      ],
      "name": "Sketchfab_model"
    },
    {
      "children": [
        2
      ],
      "matrix": [
        1.0,
        0.0,
        0.0,
        0.0,
        0.0,
        0.0,
        1.0,
        0.0,
        0.0,
        -1.0,
        0.0,
        0.0,
        0.0,
        0.0,
        0.0,
        1.0
      ],
      "name": "Apple Logo.FBX"
    },
    {
      "children": [
        3
      ],
      "name": "RootNode"
    },
    {
      "children": [
        4
      ],
      "matrix": [
        1.147657036781311,
        0.0,
        0.0,
        0.0,
        0.0,
        2.5483105332153833e-16,
        -1.147657036781311,
        0.0,
        0.0,
        1.147657036781311,
        2.5483105332153833e-16,
        0.0,
        11.90432357788086,
        -67.03787994384766,
        29.94762420654297,
        1.0
      ],
      "name": "Apple Logo"
    },
    {
      "children": [
        5
      ],
      "matrix": [
        1.0,
        0.0,
        -0.0,
        0.0,
        0.0,
        1.0,
        0.0,
        0.0,
        0.0,
        0.0,
        1.0,
        0.0,
        0.0,
        -1.3295600183482748e-05,
        0.0,
        1.0
      ],
      "name": "Object_4"
    },
    {
      "mesh": 0,
      "name": "Apple Logo_01 - Default_0"
    }
  ],
  "samplers": [
    {
      "magFilter": 9729,
      "minFilter": 9987,
      "wrapS": 10497,
      "wrapT": 10497
    }
  ],
  "scene": 0,
  "scenes": [
    {
      "name": "Sketchfab_Scene",
      "nodes": [
        0
      ]
    }
  ],
  "textures": [
    {
      "sampler": 0,
      "source": 0
    }
  ]
}
